# xmcd CD database file
#
# Track frame offsets:
#	150
#	4870
#	30595
#	56933
#	75995
#	96008
#	115645
#	136420
#	160133
#	180545
#	201058
#	217295
#
# Disc length: 3222 seconds
#
# Revision: 0
# Processed by: cddbd v1.5.1PL0 Copyright (c) Steve Scherf et al.
# Submitted via: CDex 1.50
#
DISCID=9b0c940c
DTITLE=Zipang - 大政奉還
DYEAR=2000
DGENRE=Hard Rock
TTITLE0=Brother
TTITLE1=3rd Attack
TTITLE2=Zanadu -Dear Amadeus-
TTITLE3=INcubus
TTITLE4=Angels
TTITLE5=No fear 無敵復活
TTITLE6=Atomic D
TTITLE7=Alone
TTITLE8=M's Love Song -断章・天照-
TTITLE9=All by myself
TTITLE10=Sister
TTITLE11=Sent of restoration
EXTD=YEAR: 2000
EXTT0=
EXTT1=
EXTT2=
EXTT3=
EXTT4=
EXTT5=
EXTT6=
EXTT7=
EXTT8=
EXTT9=
EXTT10=
EXTT11=
PLAYORDER=
